<svg xmlns="http://www.w3.org/2000/svg" viewBox="0 0 24 24" fill="none">
  <defs>
    <linearGradient id="g-gh" x1="0" y1="0" x2="1" y2="1">
      <stop offset="0%"   stop-color="#f0c85a"/>
      <stop offset="60%"  stop-color="#d4a843"/>
      <stop offset="100%" stop-color="#b8860b"/>
    </linearGradient>
    <clipPath id="clip-gh">
      <circle cx="12" cy="12" r="10"/>
    </clipPath>
  </defs>

  <!-- Cercle de base -->
  <circle cx="12" cy="12" r="10"
          stroke="url(#g-gh)" stroke-width="1.3"
          fill="rgba(212,168,67,0.05)"/>

  <!-- Logo GitHub (octocat path simplifié, trait seul) -->
  <path d="M12 4.5C7.86 4.5 4.5 7.86 4.5 12c0 3.32 2.15 6.14 5.13 7.13
           .38.07.52-.16.52-.36v-1.27c-2.1.46-2.54-.99-2.54-.99
           -.34-.87-.84-1.1-.84-1.1-.69-.47.05-.46.05-.46
           .76.05 1.16.78 1.16.78.67 1.15 1.76.82 2.19.63
           .07-.49.26-.82.48-1.01-1.67-.19-3.43-.84-3.43-3.72
           0-.82.29-1.49.78-2.01-.08-.19-.34-.95.07-1.99
           0 0 .63-.2 2.07.77A7.2 7.2 0 0 1 12 8.8c.64 0 1.28.09 1.88.25
           1.44-.97 2.07-.77 2.07-.77.41 1.04.15 1.8.07 1.99
           .49.52.78 1.19.78 2.01 0 2.89-1.76 3.53-3.44 3.71
           .27.23.51.69.51 1.39v2.06c0 .2.14.44.52.36
           2.98-.99 5.13-3.81 5.13-7.13C19.5 7.86 16.14 4.5 12 4.5Z"
        fill="url(#g-gh)" opacity="0.88"/>

  <!-- Petits ornements sur le cercle : 4 marques aux cardinaux -->
  <line x1="12" y1="2"  x2="12" y2="3.2"  stroke="#b8860b" stroke-width="0.9" stroke-linecap="round" opacity="0.45"/>
  <line x1="12" y1="20.8" x2="12" y2="22" stroke="#b8860b" stroke-width="0.9" stroke-linecap="round" opacity="0.45"/>
  <line x1="2"  y1="12" x2="3.2" y2="12"  stroke="#b8860b" stroke-width="0.9" stroke-linecap="round" opacity="0.45"/>
  <line x1="20.8" y1="12" x2="22" y2="12" stroke="#b8860b" stroke-width="0.9" stroke-linecap="round" opacity="0.45"/>
</svg>
